<?xml version="1.0" encoding="iso-8859-1"?>
<!-- Uploaded to: SVG Repo, www.svgrepo.com, Generator: SVG Repo Mixer Tools -->
<svg height="800px" width="800px" version="1.1" id="Layer_1" xmlns="http://www.w3.org/2000/svg" xmlns:xlink="http://www.w3.org/1999/xlink" 
	 viewBox="0 0 260.782 260.782" xml:space="preserve">
<g id="XMLID_1303_">
	<polygon id="XMLID_1304_" style="fill:#FF5023;" points="30.391,170.782 50.391,260.782 210.391,260.782 230.391,170.782 
		130.391,160.782 	"/>
	<polygon id="XMLID_1305_" style="fill:#BD3C1A;" points="130.391,170.782 30.391,170.782 50.391,260.782 130.391,260.782 	"/>
	<polygon id="XMLID_1306_" style="fill:#FF5023;" points="90.391,170.782 100.391,260.782 160.391,260.782 170.391,170.782 	"/>
	<polygon id="XMLID_1307_" style="fill:#FF734F;" points="130.391,170.782 130.391,260.782 160.391,260.782 170.391,170.782 	"/>
	<path id="XMLID_1308_" style="fill:#804C09;" d="M255.391,145.782c0,13.807-11.193,25-25,25h-200c-13.807,0-25-11.193-25-25l0,0
		c0-13.807,11.193-25,25-25h200C244.198,120.782,255.391,131.976,255.391,145.782L255.391,145.782z"/>
	<path id="XMLID_1309_" style="fill:#402604;" d="M130.391,120.782h-100c-13.807,0-25,11.193-25,25s11.193,25,25,25h100V120.782z"/>
	<path id="XMLID_1310_" style="fill:#FF5023;" d="M170.391,25.525C170.053,11.372,158.483,0,144.249,0
		c-5.088,0-9.833,1.456-13.851,3.969C126.382,1.456,121.637,0,116.549,0c-14.446,0-26.158,11.712-26.158,26.159
		c0,0.843,0.054,1.672,0.132,2.495c1.422,23.533,18.731,42.128,39.889,42.128c21.537,0,39.09-19.266,39.954-43.397
		C170.384,26.979,170.391,25.525,170.391,25.525z"/>
	<path id="XMLID_1311_" style="fill:#BD3C1A;" d="M130.398,3.969C126.382,1.456,121.637,0,116.549,0
		c-14.446,0-26.158,11.712-26.158,26.159c0,0.843,0.054,1.672,0.132,2.495c1.422,23.533,18.731,42.128,39.889,42.128
		C130.412,44.922,130.398,33.695,130.398,3.969z"/>
	<path id="XMLID_1312_" style="fill:#FFE98F;" d="M210.391,80.782h-10c3.139-4.179,5-9.371,5-15c0-13.807-11.193-25-25-25h-100
		c-13.807,0-25,11.193-25,25c0,5.629,1.861,10.821,5,15h-10c-13.807,0-25,11.193-25,25s11.193,25,25,25h160
		c13.807,0,25-11.193,25-25S224.198,80.782,210.391,80.782z"/>
	<path id="XMLID_1313_" style="fill:#FFDA44;" d="M80.391,40.782c-13.807,0-25,11.193-25,25c0,5.629,1.861,10.821,5,15h-10
		c-13.807,0-25,11.193-25,25s11.193,25,25,25h80v-90C130.391,40.782,80.391,40.782,80.391,40.782z"/>
</g>
</svg>