<svg xmlns="http://www.w3.org/2000/svg" version="1.1" xmlns:xlink="http://www.w3.org/1999/xlink" xmlns:svgjs="http://svgjs.dev/svgjs" width="2000" height="570" viewBox="0 0 2000 570"><g transform="matrix(1,0,0,1,-1.2121212121210192,-0.6941757762116936)"><svg viewBox="0 0 396 113" data-background-color="#692729" preserveAspectRatio="xMidYMid meet" height="570" width="2000" xmlns="http://www.w3.org/2000/svg" xmlns:xlink="http://www.w3.org/1999/xlink"><g id="tight-bounds" transform="matrix(1,0,0,1,0.23999999999995225,0.13761730300336694)"><svg viewBox="0 0 395.52 112.72476539399325" height="112.72476539399325" width="395.52"><g><svg viewBox="0 0 553.2819839459781 157.6875552109464" height="112.72476539399325" width="395.52"><g transform="matrix(1,0,0,1,157.76198394597824,21.793287297605474)"><svg viewBox="0 0 395.5199999999999 114.10098061573547" height="114.10098061573547" width="395.5199999999999"><g id="textblocktransform"><svg viewBox="0 0 395.5199999999999 114.10098061573547" height="114.10098061573547" width="395.5199999999999" id="textblock"><g><svg viewBox="0 0 395.5199999999999 114.10098061573547" height="114.10098061573547" width="395.5199999999999"><g transform="matrix(1,0,0,1,0,0)"><svg width="395.5199999999999" viewBox="6.25 -38.4 175.39 50.599999999999994" height="114.10098061573547" data-palette-color="#f2cebe"><path d="M27-30.6L10.65-30.6 10.65-19.6 25.9-19.6 25.9-15.6 10.65-15.6 10.65-4.2 27-4.2 27 0 6.25 0 6.25-34.8 27-34.8 27-30.6ZM73.2 0L61.7-16.05 56.65-10.2 56.65 0 52.25 0 52.25-34.8 56.65-34.8 56.65-16.6 72.34-34.8 77.75-34.8 64.8-19.7 78.84 0 73.2 0ZM99.94-26.7Q103.64-26.7 105.54-24.43 107.44-22.15 107.44-18.1L107.44-18.1 107.44 0 103.04 0 103.04-17.5Q103.04-20 101.99-21.38 100.94-22.75 98.79-22.75L98.79-22.75Q96.34-22.75 94.67-21.95 92.99-21.15 90.94-19.35L90.94-19.35 90.94 0 86.54 0 86.54-37.7 90.94-37.7 90.94-22.85Q93.14-24.85 95.12-25.78 97.09-26.7 99.94-26.7L99.94-26.7ZM138.64 0L134.24 0 133.54-3.75Q131.59-1.6 129.31-0.5 127.04 0.6 124.19 0.6L124.19 0.6Q120.64 0.6 118.44-1.43 116.24-3.45 116.24-6.8L116.24-6.8Q116.24-11.15 119.74-13.2 123.24-15.25 128.74-15.25L128.74-15.25Q130.74-15.25 133.14-15L133.14-15 133.14-16.8Q133.14-19.5 131.67-21.13 130.19-22.75 127.84-22.75L127.84-22.75Q125.04-22.75 122.77-22 120.49-21.25 118.09-19.65L118.09-19.65 118.09-23.9Q120.44-25.45 122.89-26.08 125.34-26.7 128.49-26.7L128.49-26.7Q132.49-26.7 135.02-24.15 137.54-21.6 137.54-17.4L137.54-17.4 137.54-5.8 138.64 0ZM125.09-3.1Q127.49-3.1 129.39-4.1 131.29-5.1 133.14-7L133.14-7 133.14-11.9 128.54-11.9Q120.99-11.9 120.99-7.05L120.99-7.05Q120.99-5.25 122.14-4.17 123.29-3.1 125.09-3.1L125.09-3.1ZM149.29-32Q147.89-32 147.01-32.9 146.14-33.8 146.14-35.2L146.14-35.2Q146.14-36.6 147.01-37.5 147.89-38.4 149.29-38.4L149.29-38.4Q150.69-38.4 151.56-37.5 152.44-36.6 152.44-35.2L152.44-35.2Q152.44-33.8 151.56-32.9 150.69-32 149.29-32L149.29-32ZM143.54 12.2Q142.09 12.2 141.24 12.05 140.39 11.9 139.39 11.35L139.39 11.35 139.39 7.55Q140.34 8.05 141.09 8.2 141.84 8.35 142.94 8.35L142.94 8.35Q145.09 8.35 146.09 6.93 147.09 5.5 147.09 3L147.09 3 147.09-26.1 151.49-26.1 151.49 3Q151.49 7.35 149.49 9.78 147.49 12.2 143.54 12.2L143.54 12.2ZM181.64 0L177.24 0 176.54-3.75Q174.59-1.6 172.31-0.5 170.04 0.6 167.19 0.6L167.19 0.6Q163.64 0.6 161.44-1.43 159.24-3.45 159.24-6.8L159.24-6.8Q159.24-11.15 162.74-13.2 166.24-15.25 171.74-15.25L171.74-15.25Q173.74-15.25 176.14-15L176.14-15 176.14-16.8Q176.14-19.5 174.66-21.13 173.19-22.75 170.84-22.75L170.84-22.75Q168.04-22.75 165.76-22 163.49-21.25 161.09-19.65L161.09-19.65 161.09-23.9Q163.44-25.45 165.89-26.08 168.34-26.7 171.49-26.7L171.49-26.7Q175.49-26.7 178.01-24.15 180.54-21.6 180.54-17.4L180.54-17.4 180.54-5.8 181.64 0ZM168.09-3.1Q170.49-3.1 172.39-4.1 174.29-5.1 176.14-7L176.14-7 176.14-11.9 171.54-11.9Q163.99-11.9 163.99-7.05L163.99-7.05Q163.99-5.25 165.14-4.17 166.29-3.1 168.09-3.1L168.09-3.1Z" opacity="1" transform="matrix(1,0,0,1,0,0)" fill="#ffffff" class="wordmark-text-0" data-fill-palette-color="primary" id="text-0"></path></svg></g></svg></g></svg></g></svg></g><g><svg viewBox="0 0 130.82548084613788 157.6875552109464" height="157.6875552109464" width="130.82548084613788"><g><svg xmlns="http://www.w3.org/2000/svg" xmlns:xlink="http://www.w3.org/1999/xlink" version="1.1" x="0" y="0" viewBox="5.356387831241043 1.3222235572460037 39.2878904755484 47.354776442753995" enable-background="new 0 0 50 50" xml:space="preserve" height="157.6875552109464" width="130.82548084613788" class="icon-icon-0" data-fill-palette-color="accent" id="icon-0"><g fill="#eae4d6" data-fill-palette-color="accent"><path fill-rule="evenodd" clip-rule="evenodd" fill="#ffffff" d="M44.104 11.163c0.779-0.705 0.704-1.413-0.15-2.119-4.348 0.819-31.488 11.599-32.084 13.682C22.578 18.858 33.359 15.03 44.104 11.163z" data-fill-palette-color="accent"></path><path fill-rule="evenodd" clip-rule="evenodd" fill="#ffffff" d="M36.52 2.613c-0.484-3.271-4.054 0.521-6.617 2.082-2.642 2.043-4.833 3.531-7.547 5.578-2.566 1.968-13.312 9.478-13.906 11.783L36.52 2.613z" data-fill-palette-color="accent"></path><path fill-rule="evenodd" clip-rule="evenodd" fill="#ffffff" d="M18.671 26.926c2.752-1.076 2.381-4.869 7.548-2.936 0.483 0.781 0 1.45-0.632 2.229 3.235-1.261 5.245-2.86 7.66 1.303 1.896-0.631 5.726 0.93 6.023-0.074-1.488-0.816-3.05-1.486-5.354-1.486-0.744-0.707-1.523-1.376-2.305-2.083-1.19-0.372-2.416-0.335-3.641 0.111-1.268-0.818-1.936-1.747-4.092-1.747-2.12 0-2.791 0.929-4.017 1.747-3.271 0-3.568 0.036-5.986 2.229-1.561 0.447-3.159 0.855-4.721 1.303 0.073 0.223 0.111 0.447 0.186 0.631 1.747-0.258 3.495-0.52 5.242-0.779C15.214 24.995 20.048 23.582 18.671 26.926z" data-fill-palette-color="accent"></path><path fill-rule="evenodd" clip-rule="evenodd" fill="#ffffff" d="M5.363 28.861c-0.224 8.625 5.279 16.691 11.079 19.816h16.917c0.036-0.113 5.986-5.133 7.434-7.734 1.637-3.014 3.05-7.732 3.05-12.082H5.363z" data-fill-palette-color="accent"></path></g></svg></g></svg></g></svg></g><defs></defs></svg><rect width="395.52" height="112.72476539399325" fill="none" stroke="none" visibility="hidden"></rect></g></svg></g></svg>